<svg width="1440" height="52" viewBox="0 0 1440 52" fill="none" xmlns="http://www.w3.org/2000/svg">
<rect width="1440" height="52" fill="#283FB1"/>
<path d="M497.562 24.8182V26.3097H492.859V24.8182H497.562ZM494.02 22.858H495.948V30.5391C495.948 30.7983 495.987 30.9972 496.065 31.1357C496.147 31.2706 496.254 31.3629 496.385 31.4126C496.516 31.4624 496.662 31.4872 496.822 31.4872C496.943 31.4872 497.053 31.4783 497.152 31.4606C497.255 31.4428 497.333 31.4268 497.386 31.4126L497.711 32.9201C497.608 32.9556 497.461 32.9947 497.269 33.0373C497.081 33.0799 496.85 33.1048 496.577 33.1119C496.094 33.1261 495.659 33.0533 495.272 32.8935C494.885 32.7301 494.577 32.478 494.35 32.1371C494.126 31.7962 494.016 31.37 494.02 30.8587V22.858ZM502.656 33.1598C501.857 33.1598 501.164 32.984 500.578 32.6325C499.992 32.2809 499.538 31.7891 499.215 31.157C498.895 30.5249 498.735 29.7862 498.735 28.9411C498.735 28.0959 498.895 27.3555 499.215 26.7198C499.538 26.0842 499.992 25.5906 500.578 25.239C501.164 24.8874 501.857 24.7116 502.656 24.7116C503.455 24.7116 504.147 24.8874 504.733 25.239C505.319 25.5906 505.772 26.0842 506.092 26.7198C506.415 27.3555 506.576 28.0959 506.576 28.9411C506.576 29.7862 506.415 30.5249 506.092 31.157C505.772 31.7891 505.319 32.2809 504.733 32.6325C504.147 32.984 503.455 33.1598 502.656 33.1598ZM502.667 31.6151C503.1 31.6151 503.462 31.4961 503.753 31.2582C504.044 31.0167 504.261 30.6935 504.403 30.2887C504.549 29.8839 504.621 29.4329 504.621 28.9357C504.621 28.435 504.549 27.9822 504.403 27.5774C504.261 27.169 504.044 26.8441 503.753 26.6026C503.462 26.3612 503.1 26.2404 502.667 26.2404C502.223 26.2404 501.853 26.3612 501.559 26.6026C501.267 26.8441 501.049 27.169 500.903 27.5774C500.761 27.9822 500.69 28.435 500.69 28.9357C500.69 29.4329 500.761 29.8839 500.903 30.2887C501.049 30.6935 501.267 31.0167 501.559 31.2582C501.853 31.4961 502.223 31.6151 502.667 31.6151ZM511.249 33.1438C510.606 33.1438 510.031 32.9787 509.523 32.6484C509.015 32.3182 508.614 31.8388 508.319 31.2102C508.025 30.5817 507.877 29.8182 507.877 28.9197C507.877 28.0107 508.027 27.2436 508.325 26.6186C508.627 25.9901 509.033 25.516 509.545 25.1964C510.056 24.8732 510.626 24.7116 511.254 24.7116C511.734 24.7116 512.128 24.7933 512.437 24.9567C512.746 25.1165 512.991 25.31 513.172 25.5373C513.353 25.761 513.493 25.9723 513.593 26.1712H513.673V22.0909H515.606V33H513.71V31.7109H513.593C513.493 31.9098 513.35 32.1211 513.161 32.3448C512.973 32.565 512.725 32.7532 512.416 32.9094C512.107 33.0657 511.718 33.1438 511.249 33.1438ZM511.787 31.5618C512.196 31.5618 512.544 31.4517 512.831 31.2315C513.119 31.0078 513.337 30.6971 513.486 30.2994C513.636 29.9016 513.71 29.4382 513.71 28.9091C513.71 28.38 513.636 27.9201 513.486 27.5295C513.341 27.1388 513.124 26.8352 512.837 26.6186C512.552 26.402 512.203 26.2937 511.787 26.2937C511.357 26.2937 510.999 26.4055 510.711 26.6293C510.424 26.853 510.207 27.1619 510.061 27.5561C509.916 27.9503 509.843 28.4013 509.843 28.9091C509.843 29.4205 509.916 29.8768 510.061 30.2781C510.21 30.6758 510.429 30.9901 510.716 31.2209C511.008 31.4482 511.365 31.5618 511.787 31.5618ZM521.23 33.1598C520.431 33.1598 519.739 32.984 519.153 32.6325C518.567 32.2809 518.112 31.7891 517.789 31.157C517.469 30.5249 517.31 29.7862 517.31 28.9411C517.31 28.0959 517.469 27.3555 517.789 26.7198C518.112 26.0842 518.567 25.5906 519.153 25.239C519.739 24.8874 520.431 24.7116 521.23 24.7116C522.029 24.7116 522.722 24.8874 523.307 25.239C523.893 25.5906 524.346 26.0842 524.666 26.7198C524.989 27.3555 525.151 28.0959 525.151 28.9411C525.151 29.7862 524.989 30.5249 524.666 31.157C524.346 31.7891 523.893 32.2809 523.307 32.6325C522.722 32.984 522.029 33.1598 521.23 33.1598ZM521.241 31.6151C521.674 31.6151 522.036 31.4961 522.327 31.2582C522.619 31.0167 522.835 30.6935 522.977 30.2887C523.123 29.8839 523.196 29.4329 523.196 28.9357C523.196 28.435 523.123 27.9822 522.977 27.5774C522.835 27.169 522.619 26.8441 522.327 26.6026C522.036 26.3612 521.674 26.2404 521.241 26.2404C520.797 26.2404 520.428 26.3612 520.133 26.6026C519.842 26.8441 519.623 27.169 519.478 27.5774C519.336 27.9822 519.265 28.435 519.265 28.9357C519.265 29.4329 519.336 29.8839 519.478 30.2887C519.623 30.6935 519.842 31.0167 520.133 31.2582C520.428 31.4961 520.797 31.6151 521.241 31.6151ZM533.254 26.9808L531.496 27.1726C531.446 26.995 531.359 26.8281 531.235 26.6719C531.114 26.5156 530.951 26.3896 530.745 26.2937C530.539 26.1978 530.287 26.1499 529.989 26.1499C529.587 26.1499 529.25 26.2369 528.976 26.4109C528.707 26.5849 528.573 26.8104 528.577 27.0874C528.573 27.3253 528.66 27.5188 528.838 27.668C529.019 27.8171 529.317 27.9396 529.733 28.0355L531.128 28.3338C531.903 28.5007 532.478 28.7653 532.854 29.1275C533.234 29.4897 533.426 29.9638 533.43 30.5497C533.426 31.0646 533.275 31.5192 532.977 31.9134C532.682 32.304 532.272 32.6094 531.746 32.8295C531.221 33.0497 530.617 33.1598 529.935 33.1598C528.934 33.1598 528.128 32.9503 527.517 32.5312C526.906 32.1087 526.542 31.521 526.425 30.7681L528.305 30.587C528.39 30.9563 528.572 31.2351 528.849 31.4233C529.126 31.6115 529.486 31.7056 529.93 31.7056C530.388 31.7056 530.756 31.6115 531.033 31.4233C531.313 31.2351 531.453 31.0025 531.453 30.7255C531.453 30.4911 531.363 30.2976 531.182 30.1449C531.004 29.9922 530.727 29.875 530.351 29.7933L528.955 29.5004C528.17 29.337 527.59 29.0618 527.213 28.6747C526.837 28.2841 526.65 27.7905 526.654 27.1939C526.65 26.6896 526.787 26.2528 527.064 25.8835C527.345 25.5107 527.734 25.223 528.231 25.0206C528.731 24.8146 529.308 24.7116 529.962 24.7116C530.921 24.7116 531.675 24.9158 532.226 25.3242C532.78 25.7326 533.122 26.2848 533.254 26.9808ZM542.309 33.1598C541.51 33.1598 540.818 32.984 540.232 32.6325C539.646 32.2809 539.191 31.7891 538.868 31.157C538.549 30.5249 538.389 29.7862 538.389 28.9411C538.389 28.0959 538.549 27.3555 538.868 26.7198C539.191 26.0842 539.646 25.5906 540.232 25.239C540.818 24.8874 541.51 24.7116 542.309 24.7116C543.108 24.7116 543.801 24.8874 544.387 25.239C544.973 25.5906 545.425 26.0842 545.745 26.7198C546.068 27.3555 546.23 28.0959 546.23 28.9411C546.23 29.7862 546.068 30.5249 545.745 31.157C545.425 31.7891 544.973 32.2809 544.387 32.6325C543.801 32.984 543.108 33.1598 542.309 33.1598ZM542.32 31.6151C542.753 31.6151 543.115 31.4961 543.406 31.2582C543.698 31.0167 543.914 30.6935 544.056 30.2887C544.202 29.8839 544.275 29.4329 544.275 28.9357C544.275 28.435 544.202 27.9822 544.056 27.5774C543.914 27.169 543.698 26.8441 543.406 26.6026C543.115 26.3612 542.753 26.2404 542.32 26.2404C541.876 26.2404 541.507 26.3612 541.212 26.6026C540.921 26.8441 540.702 27.169 540.557 27.5774C540.415 27.9822 540.344 28.435 540.344 28.9357C540.344 29.4329 540.415 29.8839 540.557 30.2887C540.702 30.6935 540.921 31.0167 541.212 31.2582C541.507 31.4961 541.876 31.6151 542.32 31.6151ZM554.333 26.9808L552.575 27.1726C552.525 26.995 552.438 26.8281 552.314 26.6719C552.193 26.5156 552.03 26.3896 551.824 26.2937C551.618 26.1978 551.366 26.1499 551.068 26.1499C550.666 26.1499 550.329 26.2369 550.056 26.4109C549.786 26.5849 549.652 26.8104 549.656 27.0874C549.652 27.3253 549.739 27.5188 549.917 27.668C550.098 27.8171 550.396 27.9396 550.812 28.0355L552.208 28.3338C552.982 28.5007 553.557 28.7653 553.933 29.1275C554.313 29.4897 554.505 29.9638 554.509 30.5497C554.505 31.0646 554.354 31.5192 554.056 31.9134C553.761 32.304 553.351 32.6094 552.825 32.8295C552.3 33.0497 551.696 33.1598 551.014 33.1598C550.013 33.1598 549.207 32.9503 548.596 32.5312C547.985 32.1087 547.621 31.521 547.504 30.7681L549.384 30.587C549.47 30.9563 549.651 31.2351 549.928 31.4233C550.205 31.6115 550.565 31.7056 551.009 31.7056C551.467 31.7056 551.835 31.6115 552.112 31.4233C552.392 31.2351 552.532 31.0025 552.532 30.7255C552.532 30.4911 552.442 30.2976 552.261 30.1449C552.083 29.9922 551.806 29.875 551.43 29.7933L550.034 29.5004C549.249 29.337 548.669 29.0618 548.292 28.6747C547.916 28.2841 547.73 27.7905 547.733 27.1939C547.73 26.6896 547.866 26.2528 548.143 25.8835C548.424 25.5107 548.813 25.223 549.31 25.0206C549.811 24.8146 550.388 24.7116 551.041 24.7116C552 24.7116 552.754 24.9158 553.305 25.3242C553.859 25.7326 554.201 26.2848 554.333 26.9808ZM562.856 33.1438C562.213 33.1438 561.638 32.9787 561.13 32.6484C560.622 32.3182 560.221 31.8388 559.926 31.2102C559.631 30.5817 559.484 29.8182 559.484 28.9197C559.484 28.0107 559.633 27.2436 559.931 26.6186C560.233 25.9901 560.64 25.516 561.151 25.1964C561.662 24.8732 562.232 24.7116 562.861 24.7116C563.34 24.7116 563.735 24.7933 564.043 24.9567C564.352 25.1165 564.597 25.31 564.779 25.5373C564.96 25.761 565.1 25.9723 565.199 26.1712H565.279V22.0909H567.213V33H565.317V31.7109H565.199C565.1 31.9098 564.956 32.1211 564.768 32.3448C564.58 32.565 564.331 32.7532 564.022 32.9094C563.713 33.0657 563.324 33.1438 562.856 33.1438ZM563.394 31.5618C563.802 31.5618 564.15 31.4517 564.438 31.2315C564.725 31.0078 564.944 30.6971 565.093 30.2994C565.242 29.9016 565.317 29.4382 565.317 28.9091C565.317 28.38 565.242 27.9201 565.093 27.5295C564.947 27.1388 564.731 26.8352 564.443 26.6186C564.159 26.402 563.809 26.2937 563.394 26.2937C562.964 26.2937 562.605 26.4055 562.318 26.6293C562.03 26.853 561.813 27.1619 561.668 27.5561C561.522 27.9503 561.449 28.4013 561.449 28.9091C561.449 29.4205 561.522 29.8768 561.668 30.2781C561.817 30.6758 562.035 30.9901 562.323 31.2209C562.614 31.4482 562.971 31.5618 563.394 31.5618ZM569.268 33V24.8182H571.196V33H569.268ZM570.237 23.657C569.932 23.657 569.669 23.5558 569.449 23.3533C569.229 23.1474 569.118 22.9006 569.118 22.6129C569.118 22.3217 569.229 22.0749 569.449 21.8725C569.669 21.6665 569.932 21.5636 570.237 21.5636C570.546 21.5636 570.809 21.6665 571.025 21.8725C571.246 22.0749 571.356 22.3217 571.356 22.6129C571.356 22.9006 571.246 23.1474 571.025 23.3533C570.809 23.5558 570.546 23.657 570.237 23.657ZM573.179 33V24.8182H575.048V26.1818H575.134C575.283 25.7095 575.538 25.3455 575.901 25.0898C576.266 24.8306 576.684 24.701 577.152 24.701C577.259 24.701 577.378 24.7063 577.509 24.717C577.644 24.7241 577.756 24.7365 577.845 24.7543V26.5281C577.763 26.4996 577.634 26.4748 577.456 26.4535C577.282 26.4286 577.113 26.4162 576.95 26.4162C576.598 26.4162 576.282 26.4925 576.002 26.6452C575.725 26.7944 575.507 27.0021 575.347 27.2685C575.187 27.5348 575.107 27.842 575.107 28.19V33H573.179ZM582.411 33.1598C581.591 33.1598 580.883 32.9893 580.286 32.6484C579.693 32.304 579.237 31.8175 578.917 31.1889C578.597 30.5568 578.438 29.8129 578.438 28.957C578.438 28.1154 578.597 27.3768 578.917 26.7411C579.24 26.1019 579.691 25.6048 580.27 25.2496C580.849 24.891 581.529 24.7116 582.31 24.7116C582.814 24.7116 583.29 24.7933 583.738 24.9567C584.189 25.1165 584.586 25.3651 584.931 25.7024C585.279 26.0398 585.552 26.4695 585.751 26.9915C585.95 27.5099 586.049 28.1278 586.049 28.8452V29.4364H579.343V28.1367H584.201C584.197 27.7674 584.118 27.4389 583.961 27.1513C583.805 26.8601 583.587 26.631 583.306 26.4641C583.029 26.2972 582.706 26.2138 582.337 26.2138C581.943 26.2138 581.596 26.3097 581.298 26.5014C581 26.6896 580.767 26.9382 580.6 27.2472C580.437 27.5526 580.353 27.8881 580.35 28.2539V29.3885C580.35 29.8643 580.437 30.2727 580.611 30.6136C580.785 30.951 581.028 31.2102 581.341 31.3913C581.653 31.5689 582.019 31.6577 582.438 31.6577C582.718 31.6577 582.972 31.6186 583.2 31.5405C583.427 31.4588 583.624 31.3398 583.791 31.1836C583.958 31.0273 584.084 30.8338 584.169 30.603L585.97 30.8054C585.856 31.2812 585.639 31.6967 585.32 32.0518C585.004 32.4034 584.599 32.6768 584.105 32.8722C583.612 33.0639 583.047 33.1598 582.411 33.1598ZM587.681 33V24.8182H589.609V33H587.681ZM588.65 23.657C588.345 23.657 588.082 23.5558 587.862 23.3533C587.642 23.1474 587.532 22.9006 587.532 22.6129C587.532 22.3217 587.642 22.0749 587.862 21.8725C588.082 21.6665 588.345 21.5636 588.65 21.5636C588.959 21.5636 589.222 21.6665 589.439 21.8725C589.659 22.0749 589.769 22.3217 589.769 22.6129C589.769 22.9006 589.659 23.1474 589.439 23.3533C589.222 23.5558 588.959 23.657 588.65 23.657ZM595.677 24.8182V26.3097H590.974V24.8182H595.677ZM592.135 22.858H594.063V30.5391C594.063 30.7983 594.102 30.9972 594.181 31.1357C594.262 31.2706 594.369 31.3629 594.5 31.4126C594.632 31.4624 594.777 31.4872 594.937 31.4872C595.058 31.4872 595.168 31.4783 595.267 31.4606C595.37 31.4428 595.448 31.4268 595.502 31.4126L595.827 32.9201C595.724 32.9556 595.576 32.9947 595.384 33.0373C595.196 33.0799 594.965 33.1048 594.692 33.1119C594.209 33.1261 593.774 33.0533 593.387 32.8935C593 32.7301 592.693 32.478 592.465 32.1371C592.242 31.7962 592.132 31.37 592.135 30.8587V22.858ZM600.771 33.1598C599.972 33.1598 599.28 32.984 598.694 32.6325C598.108 32.2809 597.653 31.7891 597.33 31.157C597.01 30.5249 596.851 29.7862 596.851 28.9411C596.851 28.0959 597.01 27.3555 597.33 26.7198C597.653 26.0842 598.108 25.5906 598.694 25.239C599.28 24.8874 599.972 24.7116 600.771 24.7116C601.57 24.7116 602.263 24.8874 602.848 25.239C603.434 25.5906 603.887 26.0842 604.207 26.7198C604.53 27.3555 604.692 28.0959 604.692 28.9411C604.692 29.7862 604.53 30.5249 604.207 31.157C603.887 31.7891 603.434 32.2809 602.848 32.6325C602.263 32.984 601.57 33.1598 600.771 33.1598ZM600.782 31.6151C601.215 31.6151 601.577 31.4961 601.868 31.2582C602.16 31.0167 602.376 30.6935 602.518 30.2887C602.664 29.8839 602.737 29.4329 602.737 28.9357C602.737 28.435 602.664 27.9822 602.518 27.5774C602.376 27.169 602.16 26.8441 601.868 26.6026C601.577 26.3612 601.215 26.2404 600.782 26.2404C600.338 26.2404 599.969 26.3612 599.674 26.6026C599.383 26.8441 599.164 27.169 599.019 27.5774C598.877 27.9822 598.806 28.435 598.806 28.9357C598.806 29.4329 598.877 29.8839 599.019 30.2887C599.164 30.6935 599.383 31.0167 599.674 31.2582C599.969 31.4961 600.338 31.6151 600.782 31.6151ZM612.795 26.9808L611.037 27.1726C610.987 26.995 610.9 26.8281 610.776 26.6719C610.655 26.5156 610.492 26.3896 610.286 26.2937C610.08 26.1978 609.828 26.1499 609.53 26.1499C609.128 26.1499 608.791 26.2369 608.517 26.4109C608.248 26.5849 608.114 26.8104 608.118 27.0874C608.114 27.3253 608.201 27.5188 608.379 27.668C608.56 27.8171 608.858 27.9396 609.274 28.0355L610.669 28.3338C611.444 28.5007 612.019 28.7653 612.395 29.1275C612.775 29.4897 612.967 29.9638 612.971 30.5497C612.967 31.0646 612.816 31.5192 612.518 31.9134C612.223 32.304 611.813 32.6094 611.287 32.8295C610.762 33.0497 610.158 33.1598 609.476 33.1598C608.475 33.1598 607.669 32.9503 607.058 32.5312C606.447 32.1087 606.083 31.521 605.966 30.7681L607.846 30.587C607.932 30.9563 608.113 31.2351 608.39 31.4233C608.667 31.6115 609.027 31.7056 609.471 31.7056C609.929 31.7056 610.297 31.6115 610.574 31.4233C610.854 31.2351 610.994 31.0025 610.994 30.7255C610.994 30.4911 610.904 30.2976 610.723 30.1449C610.545 29.9922 610.268 29.875 609.892 29.7933L608.496 29.5004C607.711 29.337 607.131 29.0618 606.754 28.6747C606.378 28.2841 606.191 27.7905 606.195 27.1939C606.191 26.6896 606.328 26.2528 606.605 25.8835C606.886 25.5107 607.275 25.223 607.772 25.0206C608.272 24.8146 608.849 24.7116 609.503 24.7116C610.462 24.7116 611.216 24.9158 611.767 25.3242C612.321 25.7326 612.663 26.2848 612.795 26.9808ZM618.281 33V24.8182H620.151V26.1818H620.236C620.385 25.7095 620.641 25.3455 621.003 25.0898C621.369 24.8306 621.786 24.701 622.255 24.701C622.362 24.701 622.481 24.7063 622.612 24.717C622.747 24.7241 622.859 24.7365 622.947 24.7543V26.5281C622.866 26.4996 622.736 26.4748 622.559 26.4535C622.385 26.4286 622.216 26.4162 622.053 26.4162C621.701 26.4162 621.385 26.4925 621.104 26.6452C620.827 26.7944 620.609 27.0021 620.449 27.2685C620.289 27.5348 620.21 27.842 620.21 28.19V33H618.281ZM627.514 33.1598C626.693 33.1598 625.985 32.9893 625.388 32.6484C624.795 32.304 624.339 31.8175 624.019 31.1889C623.7 30.5568 623.54 29.8129 623.54 28.957C623.54 28.1154 623.7 27.3768 624.019 26.7411C624.343 26.1019 624.794 25.6048 625.372 25.2496C625.951 24.891 626.631 24.7116 627.413 24.7116C627.917 24.7116 628.393 24.7933 628.84 24.9567C629.291 25.1165 629.689 25.3651 630.033 25.7024C630.381 26.0398 630.655 26.4695 630.854 26.9915C631.053 27.5099 631.152 28.1278 631.152 28.8452V29.4364H624.446V28.1367H629.304C629.3 27.7674 629.22 27.4389 629.064 27.1513C628.908 26.8601 628.689 26.631 628.409 26.4641C628.132 26.2972 627.809 26.2138 627.439 26.2138C627.045 26.2138 626.699 26.3097 626.401 26.5014C626.102 26.6896 625.87 26.9382 625.703 27.2472C625.539 27.5526 625.456 27.8881 625.452 28.2539V29.3885C625.452 29.8643 625.539 30.2727 625.713 30.6136C625.887 30.951 626.131 31.2102 626.443 31.3913C626.756 31.5689 627.121 31.6577 627.54 31.6577C627.821 31.6577 628.075 31.6186 628.302 31.5405C628.529 31.4588 628.727 31.3398 628.893 31.1836C629.06 31.0273 629.186 30.8338 629.272 30.603L631.072 30.8054C630.958 31.2812 630.742 31.6967 630.422 32.0518C630.106 32.4034 629.701 32.6768 629.208 32.8722C628.714 33.0639 628.149 33.1598 627.514 33.1598ZM639.25 26.9808L637.492 27.1726C637.442 26.995 637.355 26.8281 637.231 26.6719C637.11 26.5156 636.947 26.3896 636.741 26.2937C636.535 26.1978 636.283 26.1499 635.985 26.1499C635.583 26.1499 635.246 26.2369 634.973 26.4109C634.703 26.5849 634.569 26.8104 634.573 27.0874C634.569 27.3253 634.656 27.5188 634.834 27.668C635.015 27.8171 635.313 27.9396 635.729 28.0355L637.125 28.3338C637.899 28.5007 638.474 28.7653 638.85 29.1275C639.23 29.4897 639.422 29.9638 639.426 30.5497C639.422 31.0646 639.271 31.5192 638.973 31.9134C638.678 32.304 638.268 32.6094 637.742 32.8295C637.217 33.0497 636.613 33.1598 635.931 33.1598C634.93 33.1598 634.124 32.9503 633.513 32.5312C632.902 32.1087 632.538 31.521 632.421 30.7681L634.301 30.587C634.387 30.9563 634.568 31.2351 634.845 31.4233C635.122 31.6115 635.482 31.7056 635.926 31.7056C636.384 31.7056 636.752 31.6115 637.029 31.4233C637.309 31.2351 637.449 31.0025 637.449 30.7255C637.449 30.4911 637.359 30.2976 637.178 30.1449C637 29.9922 636.723 29.875 636.347 29.7933L634.951 29.5004C634.166 29.337 633.586 29.0618 633.209 28.6747C632.833 28.2841 632.647 27.7905 632.65 27.1939C632.647 26.6896 632.783 26.2528 633.06 25.8835C633.341 25.5107 633.73 25.223 634.227 25.0206C634.727 24.8146 635.305 24.7116 635.958 24.7116C636.917 24.7116 637.671 24.9158 638.222 25.3242C638.776 25.7326 639.118 26.2848 639.25 26.9808ZM644.638 33.1598C643.818 33.1598 643.109 32.9893 642.512 32.6484C641.919 32.304 641.463 31.8175 641.144 31.1889C640.824 30.5568 640.664 29.8129 640.664 28.957C640.664 28.1154 640.824 27.3768 641.144 26.7411C641.467 26.1019 641.918 25.6048 642.496 25.2496C643.075 24.891 643.755 24.7116 644.537 24.7116C645.041 24.7116 645.517 24.7933 645.964 24.9567C646.415 25.1165 646.813 25.3651 647.157 25.7024C647.505 26.0398 647.779 26.4695 647.978 26.9915C648.177 27.5099 648.276 28.1278 648.276 28.8452V29.4364H641.57V28.1367H646.428C646.424 27.7674 646.344 27.4389 646.188 27.1513C646.032 26.8601 645.813 26.631 645.533 26.4641C645.256 26.2972 644.933 26.2138 644.563 26.2138C644.169 26.2138 643.823 26.3097 643.525 26.5014C643.226 26.6896 642.994 26.9382 642.827 27.2472C642.663 27.5526 642.58 27.8881 642.576 28.2539V29.3885C642.576 29.8643 642.663 30.2727 642.837 30.6136C643.011 30.951 643.255 31.2102 643.567 31.3913C643.88 31.5689 644.245 31.6577 644.664 31.6577C644.945 31.6577 645.199 31.6186 645.426 31.5405C645.653 31.4588 645.851 31.3398 646.017 31.1836C646.184 31.0273 646.31 30.8338 646.396 30.603L648.196 30.8054C648.082 31.2812 647.866 31.6967 647.546 32.0518C647.23 32.4034 646.825 32.6768 646.332 32.8722C645.838 33.0639 645.273 33.1598 644.638 33.1598ZM649.907 33V24.8182H651.777V26.1818H651.862C652.011 25.7095 652.267 25.3455 652.629 25.0898C652.995 24.8306 653.412 24.701 653.881 24.701C653.988 24.701 654.106 24.7063 654.238 24.717C654.373 24.7241 654.485 24.7365 654.573 24.7543V26.5281C654.492 26.4996 654.362 26.4748 654.185 26.4535C654.011 26.4286 653.842 26.4162 653.679 26.4162C653.327 26.4162 653.011 26.4925 652.73 26.6452C652.453 26.7944 652.235 27.0021 652.075 27.2685C651.915 27.5348 651.836 27.842 651.836 28.19V33H649.907ZM663.412 24.8182L660.498 33H658.367L655.454 24.8182H657.51L659.39 30.896H659.475L661.361 24.8182H663.412ZM666.866 33.1651C666.348 33.1651 665.881 33.0728 665.465 32.8881C665.053 32.6999 664.727 32.4229 664.485 32.0572C664.247 31.6914 664.128 31.2404 664.128 30.7042C664.128 30.2425 664.213 29.8608 664.384 29.5589C664.554 29.2571 664.787 29.0156 665.082 28.8345C665.376 28.6534 665.708 28.5167 666.078 28.4244C666.451 28.3285 666.836 28.2592 667.234 28.2166C667.713 28.1669 668.102 28.1225 668.4 28.0835C668.699 28.0408 668.915 27.9769 669.05 27.8917C669.189 27.8029 669.258 27.6662 669.258 27.4815V27.4496C669.258 27.0483 669.139 26.7376 668.901 26.5174C668.663 26.2972 668.32 26.1871 667.873 26.1871C667.401 26.1871 667.026 26.2901 666.749 26.4961C666.476 26.7021 666.291 26.9453 666.195 27.2259L664.395 26.9702C664.537 26.473 664.771 26.0575 665.098 25.7237C665.424 25.3864 665.824 25.1342 666.296 24.9673C666.769 24.7969 667.291 24.7116 667.862 24.7116C668.256 24.7116 668.649 24.7578 669.039 24.8501C669.43 24.9425 669.787 25.0952 670.11 25.3082C670.433 25.5178 670.693 25.8036 670.888 26.1658C671.087 26.5281 671.186 26.9808 671.186 27.5241V33H669.332V31.8761H669.269C669.151 32.1033 668.986 32.3164 668.773 32.5153C668.564 32.7106 668.299 32.8686 667.979 32.9893C667.663 33.1065 667.292 33.1651 666.866 33.1651ZM667.367 31.7482C667.754 31.7482 668.09 31.6719 668.374 31.5192C668.658 31.3629 668.876 31.157 669.029 30.9013C669.185 30.6456 669.263 30.3668 669.263 30.065V29.1009C669.203 29.1506 669.1 29.1967 668.954 29.2393C668.812 29.282 668.652 29.3192 668.475 29.3512C668.297 29.3832 668.121 29.4116 667.947 29.4364C667.773 29.4613 667.623 29.4826 667.495 29.5004C667.207 29.5394 666.95 29.6033 666.722 29.6921C666.495 29.7809 666.316 29.9052 666.184 30.065C666.053 30.2212 665.987 30.4237 665.987 30.6722C665.987 31.0273 666.117 31.2955 666.376 31.4766C666.635 31.6577 666.966 31.7482 667.367 31.7482ZM676.161 33.1438C675.519 33.1438 674.943 32.9787 674.435 32.6484C673.928 32.3182 673.526 31.8388 673.232 31.2102C672.937 30.5817 672.789 29.8182 672.789 28.9197C672.789 28.0107 672.939 27.2436 673.237 26.6186C673.539 25.9901 673.945 25.516 674.457 25.1964C674.968 24.8732 675.538 24.7116 676.167 24.7116C676.646 24.7116 677.04 24.7933 677.349 24.9567C677.658 25.1165 677.903 25.31 678.084 25.5373C678.265 25.761 678.406 25.9723 678.505 26.1712H678.585V22.0909H680.519V33H678.622V31.7109H678.505C678.406 31.9098 678.262 32.1211 678.074 32.3448C677.885 32.565 677.637 32.7532 677.328 32.9094C677.019 33.0657 676.63 33.1438 676.161 33.1438ZM676.699 31.5618C677.108 31.5618 677.456 31.4517 677.743 31.2315C678.031 31.0078 678.249 30.6971 678.398 30.2994C678.548 29.9016 678.622 29.4382 678.622 28.9091C678.622 28.38 678.548 27.9201 678.398 27.5295C678.253 27.1388 678.036 26.8352 677.749 26.6186C677.465 26.402 677.115 26.2937 676.699 26.2937C676.27 26.2937 675.911 26.4055 675.623 26.6293C675.336 26.853 675.119 27.1619 674.973 27.5561C674.828 27.9503 674.755 28.4013 674.755 28.9091C674.755 29.4205 674.828 29.8768 674.973 30.2781C675.123 30.6758 675.341 30.9901 675.629 31.2209C675.92 31.4482 676.277 31.5618 676.699 31.5618ZM686.142 33.1598C685.343 33.1598 684.651 32.984 684.065 32.6325C683.479 32.2809 683.024 31.7891 682.701 31.157C682.382 30.5249 682.222 29.7862 682.222 28.9411C682.222 28.0959 682.382 27.3555 682.701 26.7198C683.024 26.0842 683.479 25.5906 684.065 25.239C684.651 24.8874 685.343 24.7116 686.142 24.7116C686.941 24.7116 687.634 24.8874 688.22 25.239C688.806 25.5906 689.258 26.0842 689.578 26.7198C689.901 27.3555 690.063 28.0959 690.063 28.9411C690.063 29.7862 689.901 30.5249 689.578 31.157C689.258 31.7891 688.806 32.2809 688.22 32.6325C687.634 32.984 686.941 33.1598 686.142 33.1598ZM686.153 31.6151C686.586 31.6151 686.948 31.4961 687.239 31.2582C687.531 31.0167 687.747 30.6935 687.889 30.2887C688.035 29.8839 688.108 29.4329 688.108 28.9357C688.108 28.435 688.035 27.9822 687.889 27.5774C687.747 27.169 687.531 26.8441 687.239 26.6026C686.948 26.3612 686.586 26.2404 686.153 26.2404C685.709 26.2404 685.34 26.3612 685.045 26.6026C684.754 26.8441 684.535 27.169 684.39 27.5774C684.248 27.9822 684.177 28.435 684.177 28.9357C684.177 29.4329 684.248 29.8839 684.39 30.2887C684.535 30.6935 684.754 31.0167 685.045 31.2582C685.34 31.4961 685.709 31.6151 686.153 31.6151ZM698.166 26.9808L696.408 27.1726C696.358 26.995 696.271 26.8281 696.147 26.6719C696.026 26.5156 695.863 26.3896 695.657 26.2937C695.451 26.1978 695.199 26.1499 694.901 26.1499C694.499 26.1499 694.162 26.2369 693.889 26.4109C693.619 26.5849 693.485 26.8104 693.489 27.0874C693.485 27.3253 693.572 27.5188 693.75 27.668C693.931 27.8171 694.229 27.9396 694.645 28.0355L696.041 28.3338C696.815 28.5007 697.39 28.7653 697.766 29.1275C698.146 29.4897 698.338 29.9638 698.342 30.5497C698.338 31.0646 698.187 31.5192 697.889 31.9134C697.594 32.304 697.184 32.6094 696.658 32.8295C696.133 33.0497 695.529 33.1598 694.847 33.1598C693.846 33.1598 693.04 32.9503 692.429 32.5312C691.818 32.1087 691.454 31.521 691.337 30.7681L693.217 30.587C693.303 30.9563 693.484 31.2351 693.761 31.4233C694.038 31.6115 694.398 31.7056 694.842 31.7056C695.3 31.7056 695.668 31.6115 695.945 31.4233C696.225 31.2351 696.365 31.0025 696.365 30.7255C696.365 30.4911 696.275 30.2976 696.094 30.1449C695.916 29.9922 695.639 29.875 695.263 29.7933L693.867 29.5004C693.082 29.337 692.502 29.0618 692.125 28.6747C691.749 28.2841 691.563 27.7905 691.566 27.1939C691.563 26.6896 691.699 26.2528 691.976 25.8835C692.257 25.5107 692.646 25.223 693.143 25.0206C693.644 24.8146 694.221 24.7116 694.874 24.7116C695.833 24.7116 696.587 24.9158 697.138 25.3242C697.692 25.7326 698.034 26.2848 698.166 26.9808ZM706.508 27.5455C706.508 26.9844 706.644 26.473 706.918 26.0114C707.195 25.5462 707.564 25.1768 708.026 24.9034C708.491 24.6264 709.004 24.4879 709.565 24.4879C710.059 24.4879 710.513 24.5945 710.929 24.8075C711.344 25.0206 711.687 25.3118 711.957 25.6811C712.23 26.0504 712.397 26.4677 712.457 26.9329H710.971C710.911 26.631 710.748 26.386 710.481 26.1978C710.215 26.006 709.909 25.9102 709.565 25.9102C709.267 25.9102 708.993 25.9847 708.745 26.1339C708.5 26.2795 708.303 26.4766 708.153 26.7251C708.008 26.9702 707.935 27.2418 707.935 27.5401C707.935 27.842 708.008 28.1172 708.153 28.3658C708.303 28.6108 708.5 28.8079 708.745 28.957C708.993 29.1062 709.267 29.1808 709.565 29.1808C709.909 29.1808 710.204 29.0866 710.449 28.8984C710.694 28.7067 710.847 28.4599 710.907 28.158H712.394C712.333 28.6232 712.172 29.0405 711.909 29.4098C711.65 29.7791 711.318 30.0703 710.913 30.2834C710.508 30.4964 710.059 30.603 709.565 30.603C709.004 30.603 708.491 30.4663 708.026 30.1928C707.564 29.9158 707.195 29.5465 706.918 29.0849C706.644 28.6197 706.508 28.1065 706.508 27.5455ZM709.522 33.1705C708.748 33.1705 708.02 33.0249 707.338 32.7337C706.66 32.4425 706.062 32.0394 705.543 31.5245C705.028 31.006 704.624 30.4077 704.329 29.7294C704.038 29.0511 703.894 28.3232 703.897 27.5455C703.901 26.7678 704.048 26.0398 704.34 25.3615C704.634 24.6832 705.039 24.0866 705.554 23.5717C706.069 23.0533 706.666 22.6484 707.344 22.3572C708.022 22.0661 708.748 21.9205 709.522 21.9205C710.3 21.9205 711.028 22.0661 711.706 22.3572C712.388 22.6484 712.985 23.0533 713.496 23.5717C714.011 24.0866 714.414 24.6832 714.705 25.3615C714.996 26.0398 715.144 26.7678 715.147 27.5455C715.151 28.3232 715.007 29.0511 714.716 29.7294C714.425 30.4077 714.022 31.006 713.507 31.5245C712.992 32.0394 712.394 32.4425 711.712 32.7337C711.03 33.0249 710.3 33.1705 709.522 33.1705ZM709.522 31.5778C710.08 31.5778 710.604 31.473 711.094 31.2635C711.584 31.054 712.012 30.7663 712.378 30.4006C712.747 30.0312 713.034 29.6033 713.24 29.1168C713.45 28.6268 713.555 28.1048 713.555 27.5508C713.551 26.9933 713.445 26.4695 713.235 25.9794C713.029 25.4893 712.742 25.0614 712.372 24.6957C712.003 24.3263 711.575 24.0369 711.088 23.8274C710.602 23.6179 710.08 23.5131 709.522 23.5131C708.968 23.5131 708.448 23.6179 707.962 23.8274C707.475 24.0369 707.047 24.3263 706.678 24.6957C706.309 25.065 706.019 25.4947 705.81 25.9847C705.6 26.4712 705.494 26.9933 705.49 27.5508C705.49 28.1012 705.593 28.6214 705.799 29.1115C706.009 29.598 706.298 30.0259 706.667 30.3952C707.037 30.7646 707.465 31.054 707.951 31.2635C708.441 31.473 708.965 31.5778 709.522 31.5778ZM721.077 33V31.5724L724.865 27.8597C725.227 27.494 725.529 27.169 725.77 26.8849C726.012 26.6009 726.193 26.3256 726.314 26.0593C726.434 25.793 726.495 25.5089 726.495 25.207C726.495 24.8626 726.417 24.5678 726.26 24.3228C726.104 24.0742 725.889 23.8825 725.616 23.7475C725.342 23.6126 725.032 23.5451 724.684 23.5451C724.325 23.5451 724.011 23.6197 723.741 23.7688C723.471 23.9144 723.261 24.1222 723.112 24.392C722.967 24.6619 722.894 24.9833 722.894 25.3562H721.013C721.013 24.6637 721.171 24.0618 721.488 23.5504C721.804 23.0391 722.239 22.6431 722.793 22.3626C723.35 22.082 723.989 21.9418 724.71 21.9418C725.442 21.9418 726.084 22.0785 726.638 22.3519C727.192 22.6254 727.622 23 727.928 23.4759C728.236 23.9517 728.391 24.495 728.391 25.1058C728.391 25.5142 728.313 25.9155 728.157 26.3097C728 26.7038 727.725 27.1406 727.331 27.62C726.94 28.0994 726.392 28.68 725.685 29.3619L723.805 31.2741V31.3487H728.556V33H721.077ZM734.426 33.2077C733.549 33.2077 732.796 32.9858 732.168 32.5419C731.543 32.0945 731.061 31.4499 730.724 30.6083C730.39 29.7631 730.223 28.7457 730.223 27.5561C730.227 26.3665 730.396 25.3544 730.729 24.5199C731.067 23.6818 731.548 23.0426 732.173 22.6023C732.801 22.1619 733.553 21.9418 734.426 21.9418C735.3 21.9418 736.051 22.1619 736.679 22.6023C737.308 23.0426 737.789 23.6818 738.123 24.5199C738.46 25.358 738.629 26.37 738.629 27.5561C738.629 28.7493 738.46 29.7685 738.123 30.6136C737.789 31.4553 737.308 32.098 736.679 32.5419C736.054 32.9858 735.303 33.2077 734.426 33.2077ZM734.426 31.5405C735.108 31.5405 735.646 31.2049 736.04 30.5337C736.438 29.859 736.637 28.8665 736.637 27.5561C736.637 26.6896 736.546 25.9616 736.365 25.3722C736.184 24.7827 735.928 24.3388 735.598 24.0405C735.268 23.7386 734.877 23.5877 734.426 23.5877C733.748 23.5877 733.212 23.9251 732.817 24.5998C732.423 25.271 732.224 26.2564 732.221 27.5561C732.217 28.4261 732.304 29.1577 732.482 29.7507C732.663 30.3437 732.919 30.7912 733.249 31.093C733.579 31.3913 733.972 31.5405 734.426 31.5405ZM740.399 33V31.5724L744.186 27.8597C744.548 27.494 744.85 27.169 745.091 26.8849C745.333 26.6009 745.514 26.3256 745.635 26.0593C745.756 25.793 745.816 25.5089 745.816 25.207C745.816 24.8626 745.738 24.5678 745.582 24.3228C745.425 24.0742 745.21 23.8825 744.937 23.7475C744.664 23.6126 744.353 23.5451 744.005 23.5451C743.646 23.5451 743.332 23.6197 743.062 23.7688C742.792 23.9144 742.583 24.1222 742.433 24.392C742.288 24.6619 742.215 24.9833 742.215 25.3562H740.335C740.335 24.6637 740.493 24.0618 740.809 23.5504C741.125 23.0391 741.56 22.6431 742.114 22.3626C742.671 22.082 743.311 21.9418 744.031 21.9418C744.763 21.9418 745.406 22.0785 745.96 22.3519C746.514 22.6254 746.943 23 747.249 23.4759C747.558 23.9517 747.712 24.495 747.712 25.1058C747.712 25.5142 747.634 25.9155 747.478 26.3097C747.322 26.7038 747.046 27.1406 746.652 27.62C746.262 28.0994 745.713 28.68 745.006 29.3619L743.126 31.2741V31.3487H747.877V33H740.399ZM749.715 33V31.5724L753.502 27.8597C753.865 27.494 754.166 27.169 754.408 26.8849C754.649 26.6009 754.83 26.3256 754.951 26.0593C755.072 25.793 755.132 25.5089 755.132 25.207C755.132 24.8626 755.054 24.5678 754.898 24.3228C754.742 24.0742 754.527 23.8825 754.253 23.7475C753.98 23.6126 753.669 23.5451 753.321 23.5451C752.963 23.5451 752.648 23.6197 752.378 23.7688C752.109 23.9144 751.899 24.1222 751.75 24.392C751.604 24.6619 751.531 24.9833 751.531 25.3562H749.651C749.651 24.6637 749.809 24.0618 750.125 23.5504C750.441 23.0391 750.876 22.6431 751.43 22.3626C751.988 22.082 752.627 21.9418 753.348 21.9418C754.079 21.9418 754.722 22.0785 755.276 22.3519C755.83 22.6254 756.26 23 756.565 23.4759C756.874 23.9517 757.029 24.495 757.029 25.1058C757.029 25.5142 756.951 25.9155 756.794 26.3097C756.638 26.7038 756.363 27.1406 755.969 27.62C755.578 28.0994 755.029 28.68 754.323 29.3619L752.442 31.2741V31.3487H757.194V33H749.715ZM758.6 30.9759V29.4045L763.229 22.0909H764.539V24.3281H763.74L760.624 29.266V29.3512H767.085V30.9759H758.6ZM763.804 33V30.4964L763.826 29.7933V22.0909H765.69V33H763.804ZM772.615 33V22.0909H774.543V26.1712H774.623C774.722 25.9723 774.862 25.761 775.044 25.5373C775.225 25.31 775.47 25.1165 775.779 24.9567C776.088 24.7933 776.482 24.7116 776.961 24.7116C777.593 24.7116 778.163 24.8732 778.671 25.1964C779.182 25.516 779.587 25.9901 779.886 26.6186C780.187 27.2436 780.338 28.0107 780.338 28.9197C780.338 29.8182 780.191 30.5817 779.896 31.2102C779.601 31.8388 779.2 32.3182 778.692 32.6484C778.185 32.9787 777.609 33.1438 776.966 33.1438C776.498 33.1438 776.109 33.0657 775.8 32.9094C775.491 32.7532 775.242 32.565 775.054 32.3448C774.87 32.1211 774.726 31.9098 774.623 31.7109H774.511V33H772.615ZM774.506 28.9091C774.506 29.4382 774.58 29.9016 774.729 30.2994C774.882 30.6971 775.1 31.0078 775.384 31.2315C775.672 31.4517 776.02 31.5618 776.428 31.5618C776.855 31.5618 777.212 31.4482 777.499 31.2209C777.787 30.9901 778.003 30.6758 778.149 30.2781C778.298 29.8768 778.373 29.4205 778.373 28.9091C778.373 28.4013 778.3 27.9503 778.154 27.5561C778.009 27.1619 777.792 26.853 777.504 26.6293C777.217 26.4055 776.858 26.2937 776.428 26.2937C776.017 26.2937 775.667 26.402 775.379 26.6186C775.091 26.8352 774.873 27.1388 774.724 27.5295C774.578 27.9201 774.506 28.38 774.506 28.9091ZM781.978 33V24.8182H783.847V26.1818H783.932C784.082 25.7095 784.337 25.3455 784.7 25.0898C785.065 24.8306 785.483 24.701 785.951 24.701C786.058 24.701 786.177 24.7063 786.308 24.717C786.443 24.7241 786.555 24.7365 786.644 24.7543V26.5281C786.562 26.4996 786.432 26.4748 786.255 26.4535C786.081 26.4286 785.912 26.4162 785.749 26.4162C785.397 26.4162 785.081 26.4925 784.801 26.6452C784.524 26.7944 784.305 27.0021 784.146 27.2685C783.986 27.5348 783.906 27.842 783.906 28.19V33H781.978ZM791.157 33.1598C790.358 33.1598 789.665 32.984 789.079 32.6325C788.493 32.2809 788.039 31.7891 787.716 31.157C787.396 30.5249 787.236 29.7862 787.236 28.9411C787.236 28.0959 787.396 27.3555 787.716 26.7198C788.039 26.0842 788.493 25.5906 789.079 25.239C789.665 24.8874 790.358 24.7116 791.157 24.7116C791.956 24.7116 792.648 24.8874 793.234 25.239C793.82 25.5906 794.273 26.0842 794.593 26.7198C794.916 27.3555 795.077 28.0959 795.077 28.9411C795.077 29.7862 794.916 30.5249 794.593 31.157C794.273 31.7891 793.82 32.2809 793.234 32.6325C792.648 32.984 791.956 33.1598 791.157 33.1598ZM791.167 31.6151C791.601 31.6151 791.963 31.4961 792.254 31.2582C792.545 31.0167 792.762 30.6935 792.904 30.2887C793.05 29.8839 793.122 29.4329 793.122 28.9357C793.122 28.435 793.05 27.9822 792.904 27.5774C792.762 27.169 792.545 26.8441 792.254 26.6026C791.963 26.3612 791.601 26.2404 791.167 26.2404C790.724 26.2404 790.354 26.3612 790.06 26.6026C789.768 26.8441 789.55 27.169 789.404 27.5774C789.262 27.9822 789.191 28.435 789.191 28.9357C789.191 29.4329 789.262 29.8839 789.404 30.2887C789.55 30.6935 789.768 31.0167 790.06 31.2582C790.354 31.4961 790.724 31.6151 791.167 31.6151ZM804.057 33.1598C803.236 33.1598 802.528 32.9893 801.931 32.6484C801.338 32.304 800.882 31.8175 800.562 31.1889C800.243 30.5568 800.083 29.8129 800.083 28.957C800.083 28.1154 800.243 27.3768 800.562 26.7411C800.886 26.1019 801.337 25.6048 801.915 25.2496C802.494 24.891 803.174 24.7116 803.956 24.7116C804.46 24.7116 804.936 24.7933 805.383 24.9567C805.834 25.1165 806.232 25.3651 806.576 25.7024C806.924 26.0398 807.198 26.4695 807.397 26.9915C807.595 27.5099 807.695 28.1278 807.695 28.8452V29.4364H800.989V28.1367H805.847C805.843 27.7674 805.763 27.4389 805.607 27.1513C805.451 26.8601 805.232 26.631 804.952 26.4641C804.675 26.2972 804.352 26.2138 803.982 26.2138C803.588 26.2138 803.242 26.3097 802.943 26.5014C802.645 26.6896 802.413 26.9382 802.246 27.2472C802.082 27.5526 801.999 27.8881 801.995 28.2539V29.3885C801.995 29.8643 802.082 30.2727 802.256 30.6136C802.43 30.951 802.674 31.2102 802.986 31.3913C803.299 31.5689 803.664 31.6577 804.083 31.6577C804.364 31.6577 804.618 31.6186 804.845 31.5405C805.072 31.4588 805.269 31.3398 805.436 31.1836C805.603 31.0273 805.729 30.8338 805.815 30.603L807.615 30.8054C807.501 31.2812 807.285 31.6967 806.965 32.0518C806.649 32.4034 806.244 32.6768 805.751 32.8722C805.257 33.0639 804.692 33.1598 804.057 33.1598ZM815.793 26.9808L814.035 27.1726C813.985 26.995 813.898 26.8281 813.774 26.6719C813.653 26.5156 813.49 26.3896 813.284 26.2937C813.078 26.1978 812.826 26.1499 812.528 26.1499C812.126 26.1499 811.789 26.2369 811.515 26.4109C811.246 26.5849 811.112 26.8104 811.116 27.0874C811.112 27.3253 811.199 27.5188 811.377 27.668C811.558 27.8171 811.856 27.9396 812.272 28.0355L813.667 28.3338C814.442 28.5007 815.017 28.7653 815.393 29.1275C815.773 29.4897 815.965 29.9638 815.969 30.5497C815.965 31.0646 815.814 31.5192 815.516 31.9134C815.221 32.304 814.811 32.6094 814.285 32.8295C813.76 33.0497 813.156 33.1598 812.474 33.1598C811.473 33.1598 810.667 32.9503 810.056 32.5312C809.445 32.1087 809.081 31.521 808.964 30.7681L810.844 30.587C810.93 30.9563 811.111 31.2351 811.388 31.4233C811.665 31.6115 812.025 31.7056 812.469 31.7056C812.927 31.7056 813.295 31.6115 813.572 31.4233C813.852 31.2351 813.992 31.0025 813.992 30.7255C813.992 30.4911 813.902 30.2976 813.721 30.1449C813.543 29.9922 813.266 29.875 812.89 29.7933L811.494 29.5004C810.709 29.337 810.129 29.0618 809.752 28.6747C809.376 28.2841 809.189 27.7905 809.193 27.1939C809.189 26.6896 809.326 26.2528 809.603 25.8835C809.884 25.5107 810.273 25.223 810.77 25.0206C811.27 24.8146 811.848 24.7116 812.501 24.7116C813.46 24.7116 814.214 24.9158 814.765 25.3242C815.319 25.7326 815.661 26.2848 815.793 26.9808ZM821.644 24.8182V26.3097H816.941V24.8182H821.644ZM818.102 22.858H820.03V30.5391C820.03 30.7983 820.069 30.9972 820.147 31.1357C820.229 31.2706 820.336 31.3629 820.467 31.4126C820.598 31.4624 820.744 31.4872 820.904 31.4872C821.025 31.4872 821.135 31.4783 821.234 31.4606C821.337 31.4428 821.415 31.4268 821.468 31.4126L821.793 32.9201C821.69 32.9556 821.543 32.9947 821.351 33.0373C821.163 33.0799 820.932 33.1048 820.659 33.1119C820.176 33.1261 819.741 33.0533 819.354 32.8935C818.967 32.7301 818.659 32.478 818.432 32.1371C818.208 31.7962 818.098 31.37 818.102 30.8587V22.858ZM826.791 33.1598C825.971 33.1598 825.262 32.9893 824.666 32.6484C824.073 32.304 823.616 31.8175 823.297 31.1889C822.977 30.5568 822.817 29.8129 822.817 28.957C822.817 28.1154 822.977 27.3768 823.297 26.7411C823.62 26.1019 824.071 25.6048 824.65 25.2496C825.229 24.891 825.909 24.7116 826.69 24.7116C827.194 24.7116 827.67 24.7933 828.117 24.9567C828.568 25.1165 828.966 25.3651 829.311 25.7024C829.659 26.0398 829.932 26.4695 830.131 26.9915C830.33 27.5099 830.429 28.1278 830.429 28.8452V29.4364H823.723V28.1367H828.581C828.577 27.7674 828.497 27.4389 828.341 27.1513C828.185 26.8601 827.967 26.631 827.686 26.4641C827.409 26.2972 827.086 26.2138 826.717 26.2138C826.322 26.2138 825.976 26.3097 825.678 26.5014C825.38 26.6896 825.147 26.9382 824.98 27.2472C824.817 27.5526 824.733 27.8881 824.73 28.2539V29.3885C824.73 29.8643 824.817 30.2727 824.991 30.6136C825.165 30.951 825.408 31.2102 825.72 31.3913C826.033 31.5689 826.399 31.6577 826.818 31.6577C827.098 31.6577 827.352 31.6186 827.58 31.5405C827.807 31.4588 828.004 31.3398 828.171 31.1836C828.338 31.0273 828.464 30.8338 828.549 30.603L830.349 30.8054C830.236 31.2812 830.019 31.6967 829.7 32.0518C829.383 32.4034 828.979 32.6768 828.485 32.8722C827.991 33.0639 827.427 33.1598 826.791 33.1598ZM825.896 23.7422L827.089 21.3079H828.975L827.34 23.7422H825.896ZM836.146 24.8182V26.3097H831.443V24.8182H836.146ZM832.604 22.858H834.532V30.5391C834.532 30.7983 834.571 30.9972 834.649 31.1357C834.731 31.2706 834.838 31.3629 834.969 31.4126C835.1 31.4624 835.246 31.4872 835.406 31.4872C835.527 31.4872 835.637 31.4783 835.736 31.4606C835.839 31.4428 835.917 31.4268 835.97 31.4126L836.295 32.9201C836.192 32.9556 836.045 32.9947 835.853 33.0373C835.665 33.0799 835.434 33.1048 835.161 33.1119C834.678 33.1261 834.243 33.0533 833.856 32.8935C833.469 32.7301 833.161 32.478 832.934 32.1371C832.71 31.7962 832.6 31.37 832.604 30.8587V22.858ZM837.759 33V24.8182H839.687V33H837.759ZM838.728 23.657C838.423 23.657 838.16 23.5558 837.94 23.3533C837.72 23.1474 837.61 22.9006 837.61 22.6129C837.61 22.3217 837.72 22.0749 837.94 21.8725C838.16 21.6665 838.423 21.5636 838.728 21.5636C839.037 21.5636 839.3 21.6665 839.517 21.8725C839.737 22.0749 839.847 22.3217 839.847 22.6129C839.847 22.9006 839.737 23.1474 839.517 23.3533C839.3 23.5558 839.037 23.657 838.728 23.657ZM845.239 33.1598C844.422 33.1598 843.721 32.9805 843.135 32.6218C842.552 32.2631 842.103 31.7678 841.787 31.1357C841.475 30.5 841.318 29.7685 841.318 28.9411C841.318 28.1101 841.478 27.3768 841.798 26.7411C842.117 26.1019 842.568 25.6048 843.151 25.2496C843.737 24.891 844.429 24.7116 845.228 24.7116C845.892 24.7116 846.48 24.8342 846.991 25.0792C847.506 25.3207 847.916 25.6634 848.222 26.1072C848.527 26.5476 848.701 27.0625 848.744 27.652H846.901C846.826 27.2578 846.649 26.9293 846.368 26.6665C846.091 26.4002 845.72 26.267 845.255 26.267C844.861 26.267 844.514 26.3736 844.216 26.5866C843.918 26.7962 843.685 27.098 843.518 27.4922C843.355 27.8864 843.273 28.3587 843.273 28.9091C843.273 29.4666 843.355 29.946 843.518 30.3473C843.682 30.745 843.911 31.0522 844.205 31.2688C844.504 31.4819 844.854 31.5884 845.255 31.5884C845.539 31.5884 845.793 31.5352 846.017 31.4286C846.244 31.3185 846.434 31.1605 846.587 30.9545C846.739 30.7486 846.844 30.4982 846.901 30.2035H848.744C848.698 30.7823 848.527 31.2955 848.232 31.7429C847.938 32.1868 847.536 32.5348 847.029 32.7869C846.521 33.0355 845.924 33.1598 845.239 33.1598ZM852.682 33.1651C852.163 33.1651 851.696 33.0728 851.281 32.8881C850.869 32.6999 850.542 32.4229 850.301 32.0572C850.063 31.6914 849.944 31.2404 849.944 30.7042C849.944 30.2425 850.029 29.8608 850.199 29.5589C850.37 29.2571 850.602 29.0156 850.897 28.8345C851.192 28.6534 851.524 28.5167 851.893 28.4244C852.266 28.3285 852.651 28.2592 853.049 28.2166C853.529 28.1669 853.917 28.1225 854.216 28.0835C854.514 28.0408 854.731 27.9769 854.866 27.8917C855.004 27.8029 855.073 27.6662 855.073 27.4815V27.4496C855.073 27.0483 854.954 26.7376 854.716 26.5174C854.478 26.2972 854.136 26.1871 853.688 26.1871C853.216 26.1871 852.841 26.2901 852.564 26.4961C852.291 26.7021 852.106 26.9453 852.01 27.2259L850.21 26.9702C850.352 26.473 850.586 26.0575 850.913 25.7237C851.24 25.3864 851.639 25.1342 852.112 24.9673C852.584 24.7969 853.106 24.7116 853.678 24.7116C854.072 24.7116 854.464 24.7578 854.855 24.8501C855.246 24.9425 855.602 25.0952 855.926 25.3082C856.249 25.5178 856.508 25.8036 856.703 26.1658C856.902 26.5281 857.002 26.9808 857.002 27.5241V33H855.148V31.8761H855.084C854.967 32.1033 854.802 32.3164 854.589 32.5153C854.379 32.7106 854.114 32.8686 853.795 32.9893C853.479 33.1065 853.108 33.1651 852.682 33.1651ZM853.182 31.7482C853.569 31.7482 853.905 31.6719 854.189 31.5192C854.473 31.3629 854.692 31.157 854.844 30.9013C855 30.6456 855.079 30.3668 855.079 30.065V29.1009C855.018 29.1506 854.915 29.1967 854.77 29.2393C854.628 29.282 854.468 29.3192 854.29 29.3512C854.113 29.3832 853.937 29.4116 853.763 29.4364C853.589 29.4613 853.438 29.4826 853.31 29.5004C853.023 29.5394 852.765 29.6033 852.538 29.6921C852.311 29.7809 852.131 29.9052 852 30.065C851.868 30.2212 851.803 30.4237 851.803 30.6722C851.803 31.0273 851.932 31.2955 852.192 31.4766C852.451 31.6577 852.781 31.7482 853.182 31.7482ZM865.016 33.1651C864.497 33.1651 864.03 33.0728 863.615 32.8881C863.203 32.6999 862.876 32.4229 862.635 32.0572C862.397 31.6914 862.278 31.2404 862.278 30.7042C862.278 30.2425 862.363 29.8608 862.533 29.5589C862.704 29.2571 862.936 29.0156 863.231 28.8345C863.526 28.6534 863.858 28.5167 864.227 28.4244C864.6 28.3285 864.985 28.2592 865.383 28.2166C865.863 28.1669 866.251 28.1225 866.55 28.0835C866.848 28.0408 867.065 27.9769 867.2 27.8917C867.338 27.8029 867.407 27.6662 867.407 27.4815V27.4496C867.407 27.0483 867.288 26.7376 867.05 26.5174C866.812 26.2972 866.47 26.1871 866.022 26.1871C865.55 26.1871 865.175 26.2901 864.898 26.4961C864.625 26.7021 864.44 26.9453 864.344 27.2259L862.544 26.9702C862.686 26.473 862.92 26.0575 863.247 25.7237C863.574 25.3864 863.973 25.1342 864.446 24.9673C864.918 24.7969 865.44 24.7116 866.012 24.7116C866.406 24.7116 866.798 24.7578 867.189 24.8501C867.58 24.9425 867.936 25.0952 868.26 25.3082C868.583 25.5178 868.842 25.8036 869.037 26.1658C869.236 26.5281 869.336 26.9808 869.336 27.5241V33H867.482V31.8761H867.418C867.301 32.1033 867.136 32.3164 866.923 32.5153C866.713 32.7106 866.448 32.8686 866.129 32.9893C865.813 33.1065 865.442 33.1651 865.016 33.1651ZM865.516 31.7482C865.903 31.7482 866.239 31.6719 866.523 31.5192C866.807 31.3629 867.026 31.157 867.178 30.9013C867.334 30.6456 867.413 30.3668 867.413 30.065V29.1009C867.352 29.1506 867.249 29.1967 867.104 29.2393C866.962 29.282 866.802 29.3192 866.624 29.3512C866.447 29.3832 866.271 29.4116 866.097 29.4364C865.923 29.4613 865.772 29.4826 865.644 29.5004C865.356 29.5394 865.099 29.6033 864.872 29.6921C864.644 29.7809 864.465 29.9052 864.334 30.065C864.202 30.2212 864.137 30.4237 864.137 30.6722C864.137 31.0273 864.266 31.2955 864.526 31.4766C864.785 31.6577 865.115 31.7482 865.516 31.7482ZM876.489 29.5589V24.8182H878.418V33H876.548V31.5458H876.463C876.278 32.0039 875.974 32.3786 875.552 32.6697C875.133 32.9609 874.616 33.1065 874.002 33.1065C873.466 33.1065 872.991 32.9876 872.58 32.7496C872.171 32.5082 871.852 32.1584 871.621 31.7003C871.39 31.2386 871.274 30.6811 871.274 30.0277V24.8182H873.203V29.7294C873.203 30.2479 873.345 30.6598 873.629 30.9652C873.913 31.2706 874.286 31.4233 874.747 31.4233C875.032 31.4233 875.307 31.354 875.573 31.2156C875.839 31.0771 876.058 30.8711 876.228 30.5977C876.402 30.3207 876.489 29.9744 876.489 29.5589ZM884.486 24.8182V26.3097H879.783V24.8182H884.486ZM880.944 22.858H882.872V30.5391C882.872 30.7983 882.911 30.9972 882.989 31.1357C883.071 31.2706 883.177 31.3629 883.309 31.4126C883.44 31.4624 883.586 31.4872 883.746 31.4872C883.866 31.4872 883.976 31.4783 884.076 31.4606C884.179 31.4428 884.257 31.4268 884.31 31.4126L884.635 32.9201C884.532 32.9556 884.385 32.9947 884.193 33.0373C884.005 33.0799 883.774 33.1048 883.501 33.1119C883.018 33.1261 882.583 33.0533 882.196 32.8935C881.808 32.7301 881.501 32.478 881.274 32.1371C881.05 31.7962 880.94 31.37 880.944 30.8587V22.858ZM889.58 33.1598C888.781 33.1598 888.088 32.984 887.502 32.6325C886.916 32.2809 886.462 31.7891 886.139 31.157C885.819 30.5249 885.659 29.7862 885.659 28.9411C885.659 28.0959 885.819 27.3555 886.139 26.7198C886.462 26.0842 886.916 25.5906 887.502 25.239C888.088 24.8874 888.781 24.7116 889.58 24.7116C890.379 24.7116 891.071 24.8874 891.657 25.239C892.243 25.5906 892.696 26.0842 893.015 26.7198C893.339 27.3555 893.5 28.0959 893.5 28.9411C893.5 29.7862 893.339 30.5249 893.015 31.157C892.696 31.7891 892.243 32.2809 891.657 32.6325C891.071 32.984 890.379 33.1598 889.58 33.1598ZM889.59 31.6151C890.024 31.6151 890.386 31.4961 890.677 31.2582C890.968 31.0167 891.185 30.6935 891.327 30.2887C891.472 29.8839 891.545 29.4329 891.545 28.9357C891.545 28.435 891.472 27.9822 891.327 27.5774C891.185 27.169 890.968 26.8441 890.677 26.6026C890.386 26.3612 890.024 26.2404 889.59 26.2404C889.146 26.2404 888.777 26.3612 888.482 26.6026C888.191 26.8441 887.973 27.169 887.827 27.5774C887.685 27.9822 887.614 28.435 887.614 28.9357C887.614 29.4329 887.685 29.8839 887.827 30.2887C887.973 30.6935 888.191 31.0167 888.482 31.2582C888.777 31.4961 889.146 31.6151 889.59 31.6151ZM895.137 33V24.8182H896.98V26.2085H897.076C897.246 25.7397 897.528 25.3739 897.923 25.1112C898.317 24.8448 898.787 24.7116 899.334 24.7116C899.888 24.7116 900.355 24.8466 900.735 25.1165C901.119 25.3828 901.389 25.7468 901.545 26.2085H901.63C901.811 25.7539 902.117 25.3917 902.546 25.1218C902.979 24.8484 903.493 24.7116 904.086 24.7116C904.838 24.7116 905.453 24.9496 905.929 25.4254C906.405 25.9013 906.642 26.5955 906.642 27.5082V33H904.709V27.8065C904.709 27.2987 904.574 26.9276 904.304 26.6932C904.034 26.4553 903.704 26.3363 903.313 26.3363C902.848 26.3363 902.484 26.4819 902.221 26.7731C901.962 27.0607 901.832 27.4354 901.832 27.897V33H899.941V27.7266C899.941 27.304 899.814 26.9666 899.558 26.7145C899.306 26.4624 898.976 26.3363 898.567 26.3363C898.29 26.3363 898.038 26.4073 897.811 26.5494C897.583 26.6879 897.402 26.8849 897.267 27.1406C897.133 27.3928 897.065 27.6875 897.065 28.0249V33H895.137ZM912.168 33.1598C911.369 33.1598 910.676 32.984 910.09 32.6325C909.504 32.2809 909.05 31.7891 908.727 31.157C908.407 30.5249 908.247 29.7862 908.247 28.9411C908.247 28.0959 908.407 27.3555 908.727 26.7198C909.05 26.0842 909.504 25.5906 910.09 25.239C910.676 24.8874 911.369 24.7116 912.168 24.7116C912.967 24.7116 913.659 24.8874 914.245 25.239C914.831 25.5906 915.284 26.0842 915.603 26.7198C915.926 27.3555 916.088 28.0959 916.088 28.9411C916.088 29.7862 915.926 30.5249 915.603 31.157C915.284 31.7891 914.831 32.2809 914.245 32.6325C913.659 32.984 912.967 33.1598 912.168 33.1598ZM912.178 31.6151C912.611 31.6151 912.974 31.4961 913.265 31.2582C913.556 31.0167 913.773 30.6935 913.915 30.2887C914.06 29.8839 914.133 29.4329 914.133 28.9357C914.133 28.435 914.06 27.9822 913.915 27.5774C913.773 27.169 913.556 26.8441 913.265 26.6026C912.974 26.3612 912.611 26.2404 912.178 26.2404C911.734 26.2404 911.365 26.3612 911.07 26.6026C910.779 26.8441 910.561 27.169 910.415 27.5774C910.273 27.9822 910.202 28.435 910.202 28.9357C910.202 29.4329 910.273 29.8839 910.415 30.2887C910.561 30.6935 910.779 31.0167 911.07 31.2582C911.365 31.4961 911.734 31.6151 912.178 31.6151ZM921.81 24.8182V26.3097H917.107V24.8182H921.81ZM918.268 22.858H920.196V30.5391C920.196 30.7983 920.235 30.9972 920.313 31.1357C920.395 31.2706 920.502 31.3629 920.633 31.4126C920.764 31.4624 920.91 31.4872 921.07 31.4872C921.191 31.4872 921.301 31.4783 921.4 31.4606C921.503 31.4428 921.581 31.4268 921.634 31.4126L921.959 32.9201C921.856 32.9556 921.709 32.9947 921.517 33.0373C921.329 33.0799 921.098 33.1048 920.825 33.1119C920.342 33.1261 919.907 33.0533 919.52 32.8935C919.133 32.7301 918.826 32.478 918.598 32.1371C918.375 31.7962 918.264 31.37 918.268 30.8587V22.858ZM923.423 33V24.8182H925.351V33H923.423ZM924.392 23.657C924.087 23.657 923.824 23.5558 923.604 23.3533C923.384 23.1474 923.274 22.9006 923.274 22.6129C923.274 22.3217 923.384 22.0749 923.604 21.8725C923.824 21.6665 924.087 21.5636 924.392 21.5636C924.701 21.5636 924.964 21.6665 925.181 21.8725C925.401 22.0749 925.511 22.3217 925.511 22.6129C925.511 22.9006 925.401 23.1474 925.181 23.3533C924.964 23.5558 924.701 23.657 924.392 23.657ZM934.642 24.8182L931.729 33H929.598L926.684 24.8182H928.74L930.621 30.896H930.706L932.591 24.8182H934.642ZM938.097 33.1651C937.578 33.1651 937.111 33.0728 936.696 32.8881C936.284 32.6999 935.957 32.4229 935.716 32.0572C935.478 31.6914 935.359 31.2404 935.359 30.7042C935.359 30.2425 935.444 29.8608 935.614 29.5589C935.785 29.2571 936.017 29.0156 936.312 28.8345C936.607 28.6534 936.939 28.5167 937.308 28.4244C937.681 28.3285 938.066 28.2592 938.464 28.2166C938.944 28.1669 939.332 28.1225 939.631 28.0835C939.929 28.0408 940.146 27.9769 940.281 27.8917C940.419 27.8029 940.488 27.6662 940.488 27.4815V27.4496C940.488 27.0483 940.369 26.7376 940.131 26.5174C939.894 26.2972 939.551 26.1871 939.103 26.1871C938.631 26.1871 938.256 26.2901 937.979 26.4961C937.706 26.7021 937.521 26.9453 937.425 27.2259L935.625 26.9702C935.767 26.473 936.001 26.0575 936.328 25.7237C936.655 25.3864 937.054 25.1342 937.527 24.9673C937.999 24.7969 938.521 24.7116 939.093 24.7116C939.487 24.7116 939.879 24.7578 940.27 24.8501C940.661 24.9425 941.017 25.0952 941.341 25.3082C941.664 25.5178 941.923 25.8036 942.118 26.1658C942.317 26.5281 942.417 26.9808 942.417 27.5241V33H940.563V31.8761H940.499C940.382 32.1033 940.217 32.3164 940.004 32.5153C939.794 32.7106 939.53 32.8686 939.21 32.9893C938.894 33.1065 938.523 33.1651 938.097 33.1651ZM938.597 31.7482C938.984 31.7482 939.32 31.6719 939.604 31.5192C939.888 31.3629 940.107 31.157 940.259 30.9013C940.416 30.6456 940.494 30.3668 940.494 30.065V29.1009C940.433 29.1506 940.33 29.1967 940.185 29.2393C940.043 29.282 939.883 29.3192 939.705 29.3512C939.528 29.3832 939.352 29.4116 939.178 29.4364C939.004 29.4613 938.853 29.4826 938.725 29.5004C938.438 29.5394 938.18 29.6033 937.953 29.6921C937.726 29.7809 937.546 29.9052 937.415 30.065C937.283 30.2212 937.218 30.4237 937.218 30.6722C937.218 31.0273 937.347 31.2955 937.607 31.4766C937.866 31.6577 938.196 31.7482 938.597 31.7482ZM944.955 33.09C944.695 33.09 944.475 33 944.295 32.82C944.115 32.64 944.025 32.42 944.025 32.16C944.025 31.9 944.115 31.68 944.295 31.5C944.475 31.32 944.695 31.23 944.955 31.23C945.205 31.23 945.415 31.32 945.585 31.5C945.765 31.68 945.855 31.9 945.855 32.16C945.855 32.42 945.765 32.64 945.585 32.82C945.415 33 945.205 33.09 944.955 33.09Z" fill="white"/>
</svg>
